<?xml version="1.0" encoding="utf-8"?>
<!-- Generator: Adobe Illustrator 27.0.0, SVG Export Plug-In . SVG Version: 6.00 Build 0)  -->
<svg version="1.1" id="Capa_1" xmlns="http://www.w3.org/2000/svg" xmlns:xlink="http://www.w3.org/1999/xlink" x="0px" y="0px"
	 viewBox="0 0 18 18" style="enable-background:new 0 0 18 18;" xml:space="preserve">
<style type="text/css">
	.st0{fill:#FFFFFF;}
</style>
<path class="st0" d="M9,0.8c4.5,0,8.2,3.7,8.2,8.2s-3.7,8.2-8.2,8.2S0.8,13.5,0.8,9S4.5,0.8,9,0.8 M9,0.3C4.2,0.3,0.3,4.2,0.3,9
	s3.9,8.7,8.7,8.7s8.7-3.9,8.7-8.7S13.8,0.3,9,0.3L9,0.3z"/>
<g>
	<path class="st0" d="M10.4,13.5c-0.9,0-1.8,0-2.7,0c-0.1,0-0.1,0-0.2,0c-0.4,0-0.7,0-1.1-0.1c-0.7-0.2-1.3-0.6-1.6-1.3
		c-0.2-0.4-0.3-0.9-0.3-1.4c0-1,0-1.9,0-2.9c0-0.4,0-0.8,0.1-1.2C4.7,5.9,5,5.4,5.5,5C6,4.7,6.5,4.6,7,4.5c0.2,0,0.4,0,0.6,0
		c0.9,0,1.8,0,2.7,0c0.2,0,0.4,0,0.6,0c0.4,0,0.7,0.1,1.1,0.2c0.8,0.4,1.3,1,1.4,1.9c0,0.2,0,0.3,0.1,0.5c0,1.2,0,2.4,0,3.6
		c0,0,0,0.1,0,0.1c0,0.2,0,0.4-0.1,0.5c-0.1,0.6-0.3,1.1-0.8,1.4c-0.5,0.4-1,0.6-1.6,0.6C10.8,13.5,10.6,13.5,10.4,13.5z M9,12.7
		C9,12.7,9,12.7,9,12.7c0.2,0,0.5,0,0.7,0c0.5,0,1,0,1.5-0.1c0.7-0.1,1.2-0.5,1.3-1.2c0.1-0.3,0.1-0.6,0.1-0.9c0-0.8,0-1.7,0-2.5
		c0-0.4,0-0.9-0.1-1.3c-0.1-0.7-0.5-1.2-1.3-1.4c-0.3-0.1-0.6-0.1-1-0.1c-0.8,0-1.7,0-2.5,0c-0.4,0-0.8,0-1.2,0.1
		C6,5.5,5.6,5.9,5.4,6.6C5.4,6.9,5.3,7.2,5.3,7.5c0,0.7,0,1.4,0,2.2c0,0.5,0,1,0.1,1.5c0.1,0.5,0.3,0.9,0.8,1.2
		c0.3,0.2,0.6,0.2,0.9,0.2C7.7,12.7,8.4,12.7,9,12.7z"/>
	<path class="st0" d="M6.7,9c0-1.3,1-2.3,2.3-2.3c1.3,0,2.3,1,2.3,2.3c0,1.3-1,2.3-2.3,2.3C7.7,11.3,6.7,10.3,6.7,9z M9,10.5
		c0.8,0,1.5-0.7,1.5-1.5c0-0.8-0.7-1.5-1.5-1.5C8.2,7.5,7.5,8.2,7.5,9C7.5,9.8,8.2,10.5,9,10.5z"/>
	<path class="st0" d="M11.9,6.6c0,0.3-0.2,0.5-0.5,0.5c-0.3,0-0.5-0.2-0.5-0.5c0-0.3,0.2-0.5,0.5-0.5C11.7,6.1,11.9,6.3,11.9,6.6z"
		/>
</g>
</svg>
