<?xml version="1.0" encoding="utf-8"?>
<!-- Generator: Adobe Illustrator 27.0.0, SVG Export Plug-In . SVG Version: 6.00 Build 0)  -->
<svg version="1.1" id="Capa_1" xmlns="http://www.w3.org/2000/svg" xmlns:xlink="http://www.w3.org/1999/xlink" x="0px" y="0px"
	 viewBox="0 0 18 18" style="enable-background:new 0 0 18 18;" xml:space="preserve">
<style type="text/css">
	.st0{fill:#FFFFFF;}
</style>
<path class="st0" d="M10.4,5.5c0.4,0,0.9,0.1,0.9,0.1L11.5,4c0,0-0.6-0.2-1.9-0.2c-0.8,0-1.3,0.3-1.7,0.8C7.6,5,7.6,5.7,7.6,6.2v1
	H6.5v1.6h1.1v5.4h2V8.8h1.6l0.1-1.6H9.6V6C9.6,5.6,10,5.5,10.4,5.5z"/>
<path class="st0" d="M9,0.8c4.5,0,8.2,3.7,8.2,8.2s-3.7,8.2-8.2,8.2S0.8,13.5,0.8,9S4.5,0.8,9,0.8 M9,0.3C4.2,0.3,0.3,4.2,0.3,9
	s3.9,8.7,8.7,8.7s8.7-3.9,8.7-8.7S13.8,0.3,9,0.3L9,0.3z"/>
</svg>
